<mxfile host="app.diagrams.net" agent="Mozilla/5.0 (Windows NT 10.0; Win64; x64) AppleWebKit/537.36 (KHTML, like Gecko) Chrome/136.0.0.0 Safari/537.36" version="27.1.1">
  <diagram name="Page-1" id="ovap-r7feYjA_yrXRKnj">
    <mxGraphModel dx="1426" dy="811" grid="1" gridSize="10" guides="1" tooltips="1" connect="1" arrows="1" fold="1" page="1" pageScale="1" pageWidth="827" pageHeight="1169" math="0" shadow="0">
      <root>
        <mxCell id="0" />
        <mxCell id="1" parent="0" />
        <mxCell id="NXZN5u0MRk8fPvRMISZ5-4" value="&lt;font style=&quot;font-size: 24px;&quot;&gt;High Level Architecture&lt;/font&gt;" style="text;html=1;align=center;verticalAlign=middle;resizable=0;points=[];autosize=1;strokeColor=none;fillColor=none;" parent="1" vertex="1">
          <mxGeometry x="30" y="10" width="270" height="40" as="geometry" />
        </mxCell>
        <mxCell id="NXZN5u0MRk8fPvRMISZ5-5" value="&lt;div&gt;&lt;br&gt;&lt;/div&gt;&lt;div&gt;&lt;br&gt;&lt;/div&gt;&lt;div&gt;&lt;br&gt;&lt;/div&gt;&lt;div&gt;&lt;br&gt;&lt;/div&gt;&lt;div&gt;&lt;br&gt;&lt;/div&gt;&lt;div&gt;&lt;br&gt;&lt;/div&gt;&lt;div&gt;&lt;br&gt;&lt;/div&gt;&lt;div&gt;&lt;br&gt;&lt;/div&gt;&lt;div&gt;&lt;br&gt;&lt;/div&gt;&lt;div&gt;&lt;br&gt;&lt;/div&gt;&lt;div&gt;&lt;br&gt;&lt;/div&gt;&lt;div&gt;&lt;br&gt;&lt;/div&gt;&lt;div&gt;&lt;br&gt;&lt;/div&gt;&lt;div&gt;&lt;br&gt;&lt;/div&gt;&lt;div&gt;&lt;b&gt;Object Type&lt;/b&gt;:CSV&amp;nbsp; Files&lt;/div&gt;&lt;div&gt;&lt;br&gt;&lt;/div&gt;&lt;div&gt;&lt;b&gt;Interface : &lt;/b&gt;Files in Folder&lt;/div&gt;" style="rounded=0;whiteSpace=wrap;html=1;dashed=1;fillColor=none;" parent="1" vertex="1">
          <mxGeometry x="47.62" y="176" width="160" height="654" as="geometry" />
        </mxCell>
        <mxCell id="NXZN5u0MRk8fPvRMISZ5-6" value="&lt;h1&gt;Sources&lt;/h1&gt;" style="rounded=0;whiteSpace=wrap;html=1;fillColor=none;strokeColor=none;dashed=1;" parent="1" vertex="1">
          <mxGeometry x="80" y="133" width="120" height="40" as="geometry" />
        </mxCell>
        <mxCell id="NXZN5u0MRk8fPvRMISZ5-8" value="" style="rounded=0;whiteSpace=wrap;html=1;dashed=1;fillColor=none;" parent="1" vertex="1">
          <mxGeometry x="270" y="173" width="610" height="667" as="geometry" />
        </mxCell>
        <mxCell id="NXZN5u0MRk8fPvRMISZ5-9" value="&lt;h1&gt;Data WareHouse&lt;/h1&gt;" style="text;html=1;align=center;verticalAlign=middle;resizable=0;points=[];autosize=1;strokeColor=none;fillColor=none;" parent="1" vertex="1">
          <mxGeometry x="450" y="118" width="210" height="70" as="geometry" />
        </mxCell>
        <mxCell id="NXZN5u0MRk8fPvRMISZ5-10" value="" style="rounded=0;whiteSpace=wrap;html=1;dashed=1;fillColor=none;" parent="1" vertex="1">
          <mxGeometry x="980" y="170" width="120" height="653" as="geometry" />
        </mxCell>
        <mxCell id="NXZN5u0MRk8fPvRMISZ5-11" value="&lt;h1&gt;Consume&lt;/h1&gt;" style="text;html=1;align=center;verticalAlign=middle;resizable=0;points=[];autosize=1;strokeColor=none;fillColor=none;" parent="1" vertex="1">
          <mxGeometry x="970" y="126" width="130" height="70" as="geometry" />
        </mxCell>
        <mxCell id="NXZN5u0MRk8fPvRMISZ5-13" value="&lt;b&gt;Broze Layer&lt;/b&gt;" style="rounded=0;whiteSpace=wrap;html=1;fillColor=#ffe6cc;strokeColor=#d79b00;" parent="1" vertex="1">
          <mxGeometry x="290" y="220" width="165" height="40" as="geometry" />
        </mxCell>
        <mxCell id="NXZN5u0MRk8fPvRMISZ5-17" value="&lt;div&gt;&lt;span style=&quot;background-color: transparent; color: light-dark(rgb(0, 0, 0), rgb(255, 255, 255)); font-size: 15px;&quot;&gt;Raw Data&lt;/span&gt;&lt;/div&gt;&lt;div&gt;&lt;b style=&quot;text-align: left; background-color: transparent; color: light-dark(rgb(0, 0, 0), rgb(255, 255, 255));&quot;&gt;&lt;font style=&quot;font-size: 14px;&quot;&gt;&lt;br&gt;&lt;/font&gt;&lt;/b&gt;&lt;/div&gt;&lt;div&gt;&lt;b style=&quot;text-align: left; background-color: transparent; color: light-dark(rgb(0, 0, 0), rgb(255, 255, 255));&quot;&gt;&lt;font style=&quot;font-size: 14px;&quot;&gt;Object&lt;/font&gt; &lt;font style=&quot;font-size: 14px;&quot;&gt;Type :&lt;/font&gt;&lt;/b&gt;&lt;span style=&quot;background-color: transparent; color: light-dark(rgb(0, 0, 0), rgb(255, 255, 255));&quot;&gt;Tables&lt;/span&gt;&lt;/div&gt;&lt;div&gt;&lt;span style=&quot;background-color: transparent; color: light-dark(rgb(0, 0, 0), rgb(255, 255, 255));&quot;&gt;&lt;br&gt;&lt;/span&gt;&lt;/div&gt;&lt;div style=&quot;text-align: left;&quot;&gt;&lt;b style=&quot;background-color: transparent; color: light-dark(rgb(0, 0, 0), rgb(255, 255, 255));&quot;&gt;&lt;font style=&quot;font-size: 14px;&quot;&gt;Load:&lt;/font&gt;&lt;/b&gt;&lt;/div&gt;&lt;div&gt;&lt;ul&gt;&lt;li&gt;&lt;b style=&quot;background-color: transparent; color: light-dark(rgb(0, 0, 0), rgb(255, 255, 255)); text-align: center;&quot;&gt;Batch &lt;/b&gt;&lt;span style=&quot;background-color: transparent; color: light-dark(rgb(0, 0, 0), rgb(255, 255, 255)); text-align: center;&quot;&gt;Process&amp;nbsp;&lt;/span&gt;&lt;/li&gt;&lt;li&gt;&lt;span style=&quot;background-color: transparent; color: light-dark(rgb(0, 0, 0), rgb(255, 255, 255));&quot;&gt;Full Load&lt;/span&gt;&lt;/li&gt;&lt;li&gt;&lt;span style=&quot;background-color: transparent; color: light-dark(rgb(0, 0, 0), rgb(255, 255, 255));&quot;&gt;Truncate &amp;amp;Insert&lt;/span&gt;&lt;/li&gt;&lt;/ul&gt;&lt;/div&gt;&lt;div&gt;&lt;span style=&quot;background-color: transparent; color: light-dark(rgb(0, 0, 0), rgb(255, 255, 255));&quot;&gt;&lt;br&gt;&lt;/span&gt;&lt;/div&gt;&lt;div&gt;&lt;span style=&quot;background-color: transparent; color: light-dark(rgb(0, 0, 0), rgb(255, 255, 255));&quot;&gt;No &lt;b&gt;&lt;font style=&quot;font-size: 14px;&quot;&gt;Transformation&lt;/font&gt;&lt;/b&gt;&lt;/span&gt;&lt;/div&gt;&lt;div&gt;&lt;span style=&quot;background-color: transparent; color: light-dark(rgb(0, 0, 0), rgb(255, 255, 255));&quot;&gt;&lt;b&gt;&lt;font style=&quot;font-size: 14px;&quot;&gt;&lt;br&gt;&lt;/font&gt;&lt;/b&gt;&lt;/span&gt;&lt;/div&gt;&lt;div&gt;&lt;span style=&quot;background-color: transparent; color: light-dark(rgb(0, 0, 0), rgb(255, 255, 255));&quot;&gt;&lt;b&gt;&lt;font style=&quot;font-size: 14px;&quot;&gt;Data Model&lt;/font&gt;&lt;/b&gt;&lt;/span&gt;&lt;/div&gt;&lt;div&gt;&lt;span style=&quot;background-color: transparent; color: light-dark(rgb(0, 0, 0), rgb(255, 255, 255));&quot;&gt;&lt;font&gt;None(as-is)&lt;/font&gt;&lt;/span&gt;&lt;/div&gt;" style="rounded=0;whiteSpace=wrap;html=1;dashed=1;fillColor=none;" parent="1" vertex="1">
          <mxGeometry x="290" y="260" width="165" height="560" as="geometry" />
        </mxCell>
        <mxCell id="NXZN5u0MRk8fPvRMISZ5-19" value="&lt;b&gt;Silver Layer&lt;/b&gt;" style="rounded=0;whiteSpace=wrap;html=1;fillColor=#f5f5f5;strokeColor=#666666;gradientColor=#b3b3b3;" parent="1" vertex="1">
          <mxGeometry x="520" y="220" width="160" height="40" as="geometry" />
        </mxCell>
        <mxCell id="NXZN5u0MRk8fPvRMISZ5-20" value="&lt;div&gt;&lt;font style=&quot;font-size: 14px;&quot;&gt;&lt;br&gt;&lt;/font&gt;&lt;/div&gt;&lt;font style=&quot;font-size: 14px;&quot;&gt;&lt;div&gt;&lt;br&gt;&lt;/div&gt;&lt;div&gt;&lt;span style=&quot;background-color: transparent; color: light-dark(rgb(0, 0, 0), rgb(255, 255, 255));&quot;&gt;&lt;br&gt;&lt;/span&gt;&lt;/div&gt;&lt;div&gt;&lt;span style=&quot;background-color: transparent; color: light-dark(rgb(0, 0, 0), rgb(255, 255, 255));&quot;&gt;&lt;br&gt;&lt;/span&gt;&lt;/div&gt;&lt;div&gt;&lt;span style=&quot;background-color: transparent; color: light-dark(rgb(0, 0, 0), rgb(255, 255, 255));&quot;&gt;&lt;br&gt;&lt;/span&gt;&lt;/div&gt;&lt;div&gt;&lt;span style=&quot;background-color: transparent; color: light-dark(rgb(0, 0, 0), rgb(255, 255, 255));&quot;&gt;&lt;br&gt;&lt;/span&gt;&lt;/div&gt;&lt;div&gt;&lt;span style=&quot;background-color: transparent; color: light-dark(rgb(0, 0, 0), rgb(255, 255, 255));&quot;&gt;&lt;br&gt;&lt;/span&gt;&lt;/div&gt;&lt;div&gt;&lt;br&gt;&lt;/div&gt;&lt;div&gt;&lt;br&gt;&lt;/div&gt;&lt;div&gt;&lt;br&gt;&lt;/div&gt;&lt;div&gt;&lt;br&gt;&lt;/div&gt;&lt;div&gt;&lt;span style=&quot;background-color: transparent; color: light-dark(rgb(0, 0, 0), rgb(255, 255, 255));&quot;&gt;Cleaned Standardized Data&lt;/span&gt;&lt;/div&gt;&lt;/font&gt;&lt;div&gt;&lt;span style=&quot;font-size: 14px;&quot;&gt;&lt;br&gt;&lt;/span&gt;&lt;div&gt;&lt;font style=&quot;font-size: 14px;&quot;&gt;&lt;div style=&quot;text-align: left; font-size: 12px;&quot;&gt;&lt;b style=&quot;background-color: transparent; color: light-dark(rgb(0, 0, 0), rgb(255, 255, 255));&quot;&gt;&lt;font style=&quot;font-size: 14px;&quot;&gt;Object&lt;/font&gt;&amp;nbsp;&lt;font style=&quot;font-size: 14px;&quot;&gt;Type :&lt;/font&gt;&lt;/b&gt;&lt;span style=&quot;background-color: transparent; color: light-dark(rgb(0, 0, 0), rgb(255, 255, 255)); text-align: center;&quot;&gt;Tables&lt;/span&gt;&lt;/div&gt;&lt;div&gt;&lt;span style=&quot;font-size: 12px;&quot;&gt;&lt;br&gt;&lt;/span&gt;&lt;/div&gt;&lt;div style=&quot;text-align: left;&quot;&gt;&lt;span style=&quot;color: light-dark(rgb(0, 0, 0), rgb(255, 255, 255)); font-size: 12px; background-color: transparent;&quot;&gt;&lt;font style=&quot;font-size: 14px;&quot;&gt;&lt;b&gt;Load:&amp;nbsp;&lt;/b&gt;&lt;/font&gt;&lt;/span&gt;&lt;/div&gt;&lt;div style=&quot;text-align: left;&quot;&gt;&lt;ul&gt;&lt;li&gt;&lt;b style=&quot;background-color: transparent; color: light-dark(rgb(0, 0, 0), rgb(255, 255, 255)); font-size: 12px; text-align: center;&quot;&gt;&amp;nbsp;Batch&amp;nbsp;&lt;/b&gt;&lt;span style=&quot;background-color: transparent; color: light-dark(rgb(0, 0, 0), rgb(255, 255, 255)); font-size: 12px; text-align: center;&quot;&gt;Process&amp;nbsp;&lt;/span&gt;&lt;/li&gt;&lt;li&gt;&lt;span style=&quot;background-color: transparent; color: light-dark(rgb(0, 0, 0), rgb(255, 255, 255));&quot;&gt;Full Load&lt;/span&gt;&lt;/li&gt;&lt;li&gt;&lt;span style=&quot;background-color: transparent; color: light-dark(rgb(0, 0, 0), rgb(255, 255, 255));&quot;&gt;Truncate &amp;amp;Insert&lt;/span&gt;&lt;/li&gt;&lt;/ul&gt;&lt;/div&gt;&lt;div style=&quot;font-size: 12px;&quot;&gt;&lt;span style=&quot;background-color: transparent; color: light-dark(rgb(0, 0, 0), rgb(255, 255, 255));&quot;&gt;&lt;br&gt;&lt;/span&gt;&lt;/div&gt;&lt;div&gt;&lt;b style=&quot;font-size: 12px;&quot;&gt;&lt;font style=&quot;font-size: 14px;&quot;&gt;Transformation&lt;/font&gt;&lt;/b&gt;&lt;span style=&quot;background-color: transparent; color: light-dark(rgb(0, 0, 0), rgb(255, 255, 255));&quot;&gt;&lt;/span&gt;&lt;/div&gt;&lt;div&gt;&lt;ul&gt;&lt;li&gt;&lt;span style=&quot;font-size: 12px;&quot;&gt;&lt;font style=&quot;font-size: 14px;&quot;&gt;Data Cleansing&lt;/font&gt;&lt;/span&gt;&lt;/li&gt;&lt;li&gt;&lt;span style=&quot;background-color: transparent; color: light-dark(rgb(0, 0, 0), rgb(255, 255, 255)); font-size: 12px;&quot;&gt;&lt;font style=&quot;font-size: 14px;&quot;&gt;Data Standardization&lt;/font&gt;&lt;/span&gt;&lt;/li&gt;&lt;li&gt;&lt;span style=&quot;background-color: transparent; color: light-dark(rgb(0, 0, 0), rgb(255, 255, 255)); font-size: 12px;&quot;&gt;&lt;font style=&quot;font-size: 14px;&quot;&gt;Data Normalization&lt;/font&gt;&lt;/span&gt;&lt;/li&gt;&lt;li&gt;&lt;span style=&quot;background-color: transparent; color: light-dark(rgb(0, 0, 0), rgb(255, 255, 255)); font-size: 12px;&quot;&gt;&lt;font style=&quot;font-size: 14px;&quot;&gt;Derived Columns&lt;/font&gt;&lt;/span&gt;&lt;/li&gt;&lt;li&gt;&lt;span style=&quot;background-color: transparent; color: light-dark(rgb(0, 0, 0), rgb(255, 255, 255)); font-size: 12px;&quot;&gt;&lt;font style=&quot;font-size: 14px;&quot;&gt;Data Enrichment&lt;/font&gt;&lt;/span&gt;&lt;/li&gt;&lt;/ul&gt;&lt;b style=&quot;background-color: transparent; color: light-dark(rgb(0, 0, 0), rgb(255, 255, 255)); font-size: 12px;&quot;&gt;&lt;font style=&quot;font-size: 14px;&quot;&gt;Data Model&lt;/font&gt;&lt;/b&gt;&lt;/div&gt;&lt;div&gt;&lt;div style=&quot;font-size: 12px;&quot;&gt;&lt;span style=&quot;background-color: transparent; color: light-dark(rgb(0, 0, 0), rgb(255, 255, 255));&quot;&gt;None(as-is)&lt;/span&gt;&lt;/div&gt;&lt;/div&gt;&lt;div&gt;&lt;b style=&quot;background-color: transparent; color: light-dark(rgb(0, 0, 0), rgb(255, 255, 255)); font-size: 12px;&quot;&gt;&lt;font style=&quot;font-size: 14px;&quot;&gt;&lt;br&gt;&lt;/font&gt;&lt;/b&gt;&lt;/div&gt;&lt;div&gt;&lt;b style=&quot;background-color: transparent; color: light-dark(rgb(0, 0, 0), rgb(255, 255, 255)); font-size: 12px;&quot;&gt;&lt;font style=&quot;font-size: 14px;&quot;&gt;&lt;br&gt;&lt;/font&gt;&lt;/b&gt;&lt;/div&gt;&lt;div&gt;&lt;b style=&quot;font-size: 12px;&quot;&gt;&lt;font style=&quot;font-size: 14px;&quot;&gt;&lt;br&gt;&lt;/font&gt;&lt;/b&gt;&lt;/div&gt;&lt;/font&gt;&lt;/div&gt;&lt;/div&gt;" style="rounded=0;whiteSpace=wrap;html=1;dashed=1;fillColor=none;" parent="1" vertex="1">
          <mxGeometry x="520" y="260" width="160" height="560" as="geometry" />
        </mxCell>
        <mxCell id="NXZN5u0MRk8fPvRMISZ5-22" value="&lt;b&gt;Gold Layer&lt;/b&gt;" style="rounded=0;whiteSpace=wrap;html=1;fillColor=#ffcd28;gradientColor=#ffa500;strokeColor=#d79b00;" parent="1" vertex="1">
          <mxGeometry x="730" y="220" width="150" height="40" as="geometry" />
        </mxCell>
        <mxCell id="NXZN5u0MRk8fPvRMISZ5-24" value="&lt;div&gt;&lt;font style=&quot;font-size: 14px;&quot;&gt;&lt;br&gt;&lt;/font&gt;&lt;/div&gt;&lt;font style=&quot;font-size: 14px;&quot;&gt;&lt;div&gt;&lt;font style=&quot;font-size: 14px;&quot;&gt;&lt;br&gt;&lt;/font&gt;&lt;/div&gt;Business-Ready Data&lt;/font&gt;&lt;div&gt;&lt;font style=&quot;font-size: 14px;&quot;&gt;&lt;br&gt;&lt;/font&gt;&lt;/div&gt;&lt;div&gt;&lt;font style=&quot;&quot;&gt;&lt;div style=&quot;font-size: 12px; text-align: left;&quot;&gt;&lt;b style=&quot;background-color: transparent; color: light-dark(rgb(0, 0, 0), rgb(255, 255, 255));&quot;&gt;&lt;font style=&quot;font-size: 14px;&quot;&gt;Object&lt;/font&gt;&amp;nbsp;&lt;font style=&quot;font-size: 14px;&quot;&gt;Type :&lt;/font&gt;&lt;/b&gt;&lt;span style=&quot;background-color: transparent; color: light-dark(rgb(0, 0, 0), rgb(255, 255, 255)); text-align: center;&quot;&gt;Tables&lt;/span&gt;&lt;/div&gt;&lt;div style=&quot;font-size: 12px; text-align: left;&quot;&gt;&lt;span style=&quot;background-color: transparent; color: light-dark(rgb(0, 0, 0), rgb(255, 255, 255)); text-align: center;&quot;&gt;&lt;br&gt;&lt;/span&gt;&lt;/div&gt;&lt;div style=&quot;font-size: 12px; text-align: left;&quot;&gt;&lt;span style=&quot;background-color: transparent; color: light-dark(rgb(0, 0, 0), rgb(255, 255, 255)); text-align: center;&quot;&gt;No&amp;nbsp;&lt;/span&gt;&lt;b style=&quot;font-size: 14px; background-color: transparent; color: light-dark(rgb(0, 0, 0), rgb(255, 255, 255));&quot;&gt;Load&lt;/b&gt;&lt;/div&gt;&lt;div style=&quot;font-size: 12px; text-align: left;&quot;&gt;&lt;b style=&quot;font-size: 14px; background-color: transparent; color: light-dark(rgb(0, 0, 0), rgb(255, 255, 255));&quot;&gt;&lt;br&gt;&lt;/b&gt;&lt;/div&gt;&lt;div style=&quot;font-size: 12px; text-align: left;&quot;&gt;&lt;b style=&quot;text-align: center;&quot;&gt;&lt;font style=&quot;font-size: 14px;&quot;&gt;Transformation&lt;/font&gt;&lt;/b&gt;&lt;b style=&quot;font-size: 14px; background-color: transparent; color: light-dark(rgb(0, 0, 0), rgb(255, 255, 255));&quot;&gt;&lt;/b&gt;&lt;/div&gt;&lt;div style=&quot;&quot;&gt;&lt;ul style=&quot;font-size: 12px;&quot;&gt;&lt;li&gt;&lt;span style=&quot;text-align: center;&quot;&gt;&lt;font style=&quot;font-size: 14px;&quot;&gt;Data Integrations&lt;/font&gt;&lt;/span&gt;&lt;/li&gt;&lt;li&gt;&lt;span style=&quot;font-size: 14px;&quot;&gt;Aggregations&lt;/span&gt;&lt;/li&gt;&lt;li&gt;&lt;span style=&quot;font-size: 14px;&quot;&gt;Business Logics&lt;/span&gt;&lt;/li&gt;&lt;/ul&gt;&lt;div style=&quot;&quot;&gt;&lt;div style=&quot;text-align: left;&quot;&gt;&lt;span style=&quot;background-color: transparent; color: light-dark(rgb(0, 0, 0), rgb(255, 255, 255));&quot;&gt;&lt;b&gt;&lt;font style=&quot;font-size: 14px;&quot;&gt;Data Model&lt;/font&gt;&lt;/b&gt;&lt;/span&gt;&lt;/div&gt;&lt;div style=&quot;text-align: left;&quot;&gt;&lt;ul&gt;&lt;li&gt;&lt;span style=&quot;background-color: transparent; color: light-dark(rgb(0, 0, 0), rgb(255, 255, 255));&quot;&gt;&lt;font style=&quot;font-size: 14px;&quot;&gt;Star schema&lt;/font&gt;&lt;/span&gt;&lt;/li&gt;&lt;li&gt;&lt;span style=&quot;background-color: transparent; color: light-dark(rgb(0, 0, 0), rgb(255, 255, 255));&quot;&gt;&lt;font style=&quot;font-size: 14px;&quot;&gt;Flat Table&lt;/font&gt;&lt;/span&gt;&lt;/li&gt;&lt;li&gt;&lt;span style=&quot;background-color: transparent; color: light-dark(rgb(0, 0, 0), rgb(255, 255, 255));&quot;&gt;&lt;font style=&quot;font-size: 14px;&quot;&gt;Aggregated Table&lt;/font&gt;&lt;/span&gt;&lt;/li&gt;&lt;/ul&gt;&lt;/div&gt;&lt;/div&gt;&lt;/div&gt;&lt;/font&gt;&lt;/div&gt;" style="rounded=0;whiteSpace=wrap;html=1;dashed=1;fillColor=none;" parent="1" vertex="1">
          <mxGeometry x="730" y="260" width="150" height="560" as="geometry" />
        </mxCell>
        <mxCell id="NXZN5u0MRk8fPvRMISZ5-27" value="" style="image;aspect=fixed;html=1;points=[];align=center;fontSize=12;image=img/lib/azure2/general/Folder_Blank.svg;" parent="1" vertex="1">
          <mxGeometry x="100" y="230" width="36.96" height="30" as="geometry" />
        </mxCell>
        <mxCell id="NXZN5u0MRk8fPvRMISZ5-28" value="&lt;b&gt;CRM&lt;/b&gt;&lt;div&gt;&lt;br&gt;&lt;/div&gt;" style="image;aspect=fixed;html=1;points=[];align=center;fontSize=12;image=img/lib/azure2/general/File.svg;" parent="1" vertex="1">
          <mxGeometry x="118.29" y="250" width="18.67" height="23" as="geometry" />
        </mxCell>
        <mxCell id="NXZN5u0MRk8fPvRMISZ5-30" value="" style="image;aspect=fixed;html=1;points=[];align=center;fontSize=12;image=img/lib/azure2/general/Folder_Blank.svg;" parent="1" vertex="1">
          <mxGeometry x="100" y="340" width="36.96" height="30" as="geometry" />
        </mxCell>
        <mxCell id="NXZN5u0MRk8fPvRMISZ5-31" value="&lt;b&gt;ERP&lt;/b&gt;" style="image;aspect=fixed;html=1;points=[];align=center;fontSize=12;image=img/lib/azure2/general/File.svg;" parent="1" vertex="1">
          <mxGeometry x="118.29" y="350" width="24.35" height="30" as="geometry" />
        </mxCell>
        <mxCell id="NXZN5u0MRk8fPvRMISZ5-54" value="" style="shape=datastore;whiteSpace=wrap;html=1;fillColor=#fad7ac;strokeColor=#b46504;" parent="1" vertex="1">
          <mxGeometry x="330" y="320" width="60" height="40" as="geometry" />
        </mxCell>
        <mxCell id="NXZN5u0MRk8fPvRMISZ5-55" value="&lt;div&gt;&lt;br&gt;&lt;/div&gt;&lt;div&gt;&lt;br&gt;&lt;/div&gt;&lt;div&gt;&lt;br&gt;&lt;/div&gt;&lt;div&gt;&lt;br&gt;&lt;/div&gt;&lt;div&gt;&lt;br&gt;&lt;/div&gt;" style="shape=datastore;whiteSpace=wrap;html=1;fillColor=#f5f5f5;gradientColor=#b3b3b3;strokeColor=#666666;" parent="1" vertex="1">
          <mxGeometry x="560" y="315" width="60" height="45" as="geometry" />
        </mxCell>
        <mxCell id="NXZN5u0MRk8fPvRMISZ5-56" value="&lt;div&gt;&lt;br&gt;&lt;/div&gt;&lt;div&gt;&lt;br&gt;&lt;/div&gt;&lt;div&gt;&lt;br&gt;&lt;/div&gt;&lt;div&gt;&lt;br&gt;&lt;/div&gt;" style="shape=datastore;whiteSpace=wrap;html=1;fillColor=#ffcd28;gradientColor=#ffa500;strokeColor=#d79b00;" parent="1" vertex="1">
          <mxGeometry x="760" y="315" width="60" height="45" as="geometry" />
        </mxCell>
        <mxCell id="NXZN5u0MRk8fPvRMISZ5-58" value="" style="shape=singleArrow;whiteSpace=wrap;html=1;fillColor=#d5e8d4;gradientColor=#97d077;strokeColor=#82b366;" parent="1" vertex="1">
          <mxGeometry x="210" y="320" width="60" height="60" as="geometry" />
        </mxCell>
        <mxCell id="NXZN5u0MRk8fPvRMISZ5-59" value="" style="html=1;shadow=0;dashed=0;align=center;verticalAlign=middle;shape=mxgraph.arrows2.arrow;dy=0.6;dx=40;notch=0;fillColor=#d5e8d4;gradientColor=#97d077;strokeColor=#82b366;" parent="1" vertex="1">
          <mxGeometry x="460" y="330" width="60" height="40" as="geometry" />
        </mxCell>
        <mxCell id="NXZN5u0MRk8fPvRMISZ5-60" value="" style="shape=singleArrow;whiteSpace=wrap;html=1;fillColor=#d5e8d4;gradientColor=#97d077;strokeColor=#82b366;" parent="1" vertex="1">
          <mxGeometry x="670" y="315" width="60" height="60" as="geometry" />
        </mxCell>
        <mxCell id="NXZN5u0MRk8fPvRMISZ5-61" value="" style="shape=singleArrow;whiteSpace=wrap;html=1;fillColor=#d5e8d4;gradientColor=#97d077;strokeColor=#82b366;" parent="1" vertex="1">
          <mxGeometry x="880" y="307.5" width="100" height="60" as="geometry" />
        </mxCell>
        <mxCell id="NXZN5u0MRk8fPvRMISZ5-72" value="SQL&amp;nbsp; Server" style="text;html=1;align=center;verticalAlign=middle;resizable=0;points=[];autosize=1;strokeColor=none;fillColor=none;" parent="1" vertex="1">
          <mxGeometry x="310" y="146" width="90" height="30" as="geometry" />
        </mxCell>
        <mxCell id="NXZN5u0MRk8fPvRMISZ5-80" value="&lt;h1 style=&quot;margin-top: 0px;&quot;&gt;&lt;br&gt;&lt;/h1&gt;" style="text;html=1;whiteSpace=wrap;overflow=hidden;rounded=0;" parent="1" vertex="1">
          <mxGeometry x="1241" y="187.5" width="180" height="120" as="geometry" />
        </mxCell>
        <mxCell id="NXZN5u0MRk8fPvRMISZ5-81" value="" style="shape=image;verticalLabelPosition=bottom;labelBackgroundColor=default;verticalAlign=top;aspect=fixed;imageAspect=0;image=data:image/png,iVBORw0KGgoAAAANSUhEUgAAAEgAAAA8CAYAAADFXvyQAAAAAXNSR0IArs4c6QAAAARnQU1BAACxjwv8YQUAAAAJcEhZcwAADsMAAA7DAcdvqGQAAAyxSURBVHhe7Zt5dFzVfcc/b5tV0siSLFtYXuUNy44AL9iQhoQWCCSG9JwGkhZS0py0Nk0gMYS00JYmKW2dUtLEOA4kkJaeQjeapIGS0mCSBkKowQbbBLzItmRb+zKj0cy8/faPkQe/a81oJI+xek4/5/z+0O973xvN991737u/d0cRQgjOEcJ36P755aAYXHD5S7L8fwJVTpSL7wyDsOV0AEXV0SNNGNG5snQGwrfwnaScPu8oU+lBvjNE764b0KJzqV+5Hc2YITcpIHwTUFDUsCwV8Ox+Bvffhmf1M2vt06h6ldzkvDElg4RvMfD6rTjZdvRYCw2rdqAatcE2XgZhHULYfXhOBqFECdWuR9GD7Xx7gIF9m3FzHYSqLqSh7TFQtEAbAHffKzCaCuSUmXPQFrcGcpVmSgYx1osG9t2Gmz1CVfNvU7Pg9wEQ2f14Q0/ij+4C4Rbae56PZbn44eVUNf8OodrLAEi1/xWZ7n/BqFpGfetDqEaicMwp/M7D5L70aTkNmkZs29Mo4Qie7/PID/+LgdQI16y7mAWzZvLYszuxHUc+qkA4FOJT111JQ6JGlgpMeQ5SjTrqV36TquZbiM36MMK3cbsfxOm4HT/9csAcAE1TicVCRDlM8u0tpA7di/Bt4k2/TlXzJ2hYuX1ccwAws3Imj+eBm58HXc/j4PEuTg4M0dHTz+BImmM9fXQNDheNYz19DKUz8lkDTLkHBRAO7vF78TOvysq4CCEYSZtosRXUte4ANSQ3CeAf3Etu6x1yGoDYN36AEs/3gIxpkc7maKytQVVVhkbSWE7wQp1OJGQwo7r0fFcRg9zuB/GTT8vpkvi+IJnKEp15FYklfybLAco16Ef/s4fBVFpuUpRIyOC69auJhotfoLM2yM/uw+0Y/5+fCMtySY+azFy1DSNxqSwX8A7uxZzAoHQ2x90P/z2T/Tqbrr+GixYvkNMFztog9/g9+KO/kNNlM5zMYlRfTN3KHbJUQKSTmFs/h58aDOS1uS1E7noQ1PxU+nbnSfqTI4E2pYiGQ1yydBGqoshSgbMzyMtgH/wI4AEgBNi2i+f7GLqGYQRv147j4TgemqYQCukoikIma2OaLrPXP4+ixQPtJ8uhE90MjRQfYoqisKplPtFQ8SElc1YG+Zk9uJ13Fv5Oj5pY1juTYjRqEI/lHxBHR03M07WIQTwexrZdRtImDa1bCc34QEGfLOUOsWsvvYQbLl8rp4tSlkHO6FsM7Ps9hGcCoEXm0HjJPyLSP8Xt+stCu6HhDL4vMAwNx8n3qkRNFIDUSA4AQ9dwXA9VVaibEcd1fZKpLLWL7yLScB39uz+GZ/cBoGpx6tsexYgtKnxGMYQQ/Mcru0sOMU1V+bU176GprviTv0yZBh1gYN8mhJd/ZtBjC5l50eOI9Iu4XfcX2o2kTWy7+G31dMJhneqqCK7rkUzlqFv6RcL1H6R/zy245gkAVD1BQ9u30aPFJ9FzTVkGFUNk38Dp+Hzhb18IMhkL2/aKdnVFUQiHNOLxMIqinDbEHiA0431y8/NOySfp3QePcO+jT9DZOyBLACiRZcA7E7GqKFRXRaivixeGlq6r6Fr+Y2oTMerr4lRVRVDG7hyO66EoKkZiXeE804mSBh080cVgKs3R7l5ZyqNGUKvza6qpIITAslwiM9ajqBFZnhaUHGJPPv8iP33jTT5+5Xu54qLxV80i9xbOsc8AwdM4jkdqJIeuqyDA9XxqE7H832OYlksmY9GwagdGzSWB408n6VtsGvwxQ37+JnGKxUYt2+t+lVNPMe1dPQyOpFkxfy6xcIi9Rzqx7OI1q3AoRFvL/EJvHo+zNgjA7dmGP/y9QG4ig3xfkExmic66lsTiPw0cK7Pb7uNTA8/JaQB+MvujJNQwWcvizm/+HUIILmtdxqpF83n4h+Mfczqbb7iGtpbiN4GSQ6xc9Nm3ocYvltNFEWOLVaN6BYmWP5LlSZK/+rFwmI0bVrOhdRmXr1rOkuYm3te2gvUrlhaNK9pWsHjObPmEASrSgwDw09hHbwP7JEzQg9KjJh71NFz0XVSjQT7TGZTuQTeSGKsGmLZNOhcchqWIGAbVsfzNpBiVMwjwc7/kyNF/oFOsQwiB7iURigFCIBAMMRffs1noPEvbhb+FUbNGPsW4lGNQzrK45ztPkLOKzzkyqqLw+Y9uZElzkywVqMgQO8Wwk+A1/xb6xXIGuJAebQO96hp6tbX0aetwtNmkaeR1/RP0+/Pkw4sSVXQ5BYCGQljJfwVDN5g/ayYNieqy44KGOhJVpdd/Fe1B7f0dvNpbuovnHAvX91jf3MjKWXNkuSgvmMcZGlvqnGKBUcPq0KxArtJU0CDBc3tfpjc9KgsBklkwbZ95dQlu2rBBlqeM63n8zb8+Q3+q+FpMVRRu+sDlJes/MhUbYraT5e0+j4FsVckYyapkcj4HuoZxveIF9cniuB7dg8OkRjNFYzg9yvAEF1Cmgj0IDnbt582+YTkdIGkqmC6smdPI2oVLZfmssB2XXIkHQ1VRJrxryVSsBwGEQlXYemPJUMI1GNE48VjpyXEqhAydRDxWNCZrDpU2qCnRQEwrPkl7wsf1PaKaz8IZ5ddkzicVHWIAjpvl29/7Lh19wXdZpuXSm7SZN7uWL3/6d4kY71zNo5lhtvS+gC+t5wBM32Yom+Lm+jbumFO5Sb1cKtqDAAw9RsRooP2kFYwTGfoHRmhK1AfMAegyRzgWydIZyZ0RPSGLJCaHrWDBfjycnd8n9/V7MJ94CPOZJ/FOHpWbTJqKGwRw41VXc9mKWdRX+dRGPXTFxvcsVi+byyc3fkhuXjH8zsP4e1/Ge/4p3KceJv3Fm0luuQnrJ5N7Z3c6FR9iU+GlwQ4+Y/1MTgPguy7ZZJIPVi1m26IPy3IA628fwP3ZM4GcEALHtFGaW6i+/ctozQsD+kSckx50rtkz1MUjPYPc2Znm5gPd/PdgkYLeWIk3FA2jdB9j+O5bcPa+IjcpyTkzqMMW/GG3zx+ME3ce9/lcu8dLI758WFFsz+Whk30se6OL1ccb2dSb4GvDUZ4wZ9LpTHwePaRj6Aqp++/AefM1WS7KOTNoV1awtc/nq+PE13o9vnHC5/nhoqM7gKbE+edsG7cP1HGIRlkuG93Q0XWVka9+Ab+/R5bH5ZwZVClErpGj/m+SYuJtfOVgREIIM8Pod7bK0rhMa4O80Qb2m1fhUHz73uRRCIVDWK+9iPv267J4BtPWINWKciB3RaGkWkk0I78vIPfcU7J0BpMyyNu/C/Ov7xo3Ru+9leQdv4Gzv7xNVKVQfOhMX4qDIUsVQzN07F+8kN9xUYJJGeSfaMf75WvjR8chnJMdeCeOyIdNGic3i0FRuph+tmi6hm9buAf3yVKASRn0bjGca5FTFUcZ21PkHW+XpQDTzqCwqdAlyq9XT5VT7wpFrsgG0TGmnUFZMVNOlY3x/usJb7qvrIhsvo/qT25BX1V6r9C0M2jImbpB6oKl6GvfX16su5LIhz6OvqB0VXPaGaTn912VTQSLRanHSR358wljuP1+ju//Y0YGyv9hzbQzqPRNN4iGx+P6X7DG/0+i1o8njIi5Ey+zG8/qkk9VlOlnkD7xwjOPYLv2da5Xfy4LRfHG3Bdq6c3jpzPtDGrU8+/2J+Ir2mPcqv1ITpfE9fJfN1K9UpaKMu0MUvURVEr3os9q/8YXtH+S0xNieSpCiRGrKn/hO+0McgxoVg/J6QIfU3eyVXtYTk+IL8B0NKobr5alkkzKIGXOQtQlq9DGCbVpHnpjE/pYSbMlrPArcYX3jhOtEZW5UYUlsfzHN0drWGTFmWdGmWdGWWV0SJ+c52plF4/oD6BOairPk7V1BCpVjRtlqSSBmrTn+7x6oB177Bcyuw4c5uDxLtYuX8zS5gtOP+6c89mMzt7YO/XjdcpbPKvfTVyxAu3KwRPQNxohUr+RWS2bZbkkAYNeP3yUb/37+Ptw3m28uMH3193AoJpgOR3sNLZQpxT/mUExhIDhXAhHW8Cc92xDVSdXIQgYlLNtnn1lDzkzf5UOd/XQPTjM4jmzJ7U7vVKkZtSww6jiB8Y9NCvjb0UuiYCUZZDxZtLU+gDh6OQrBNPitU8pRpJvIk78CVGt9KYIGSEgZRpY6gIal31pSuYw2Un6fFBT20q45RHS+hX4RS9lEMtV6c9E8BMfoblt+5TNYSKDouH8eI2U+EXeu0EkWk/9kvuwL/gW2ci1ZN0zn4R9ATlHYyBXi1l9Iw2tjzK7ZTNKke175VJyiOUsm4Mnuli5cB7aWIFpOiCEIJVsx811oDGKED6oYSLVK4hVlb97rBxKGvT/wP8CiqstNxMKbAAAAAAASUVORK5CYII=;" parent="1" vertex="1">
          <mxGeometry x="1010" y="240" width="72" height="60" as="geometry" />
        </mxCell>
        <mxCell id="NXZN5u0MRk8fPvRMISZ5-82" value="&lt;h1 style=&quot;margin-top: 0px;&quot;&gt;&lt;font style=&quot;font-size: 16px;&quot;&gt;BI&amp;amp;Reporting&lt;/font&gt;&lt;/h1&gt;" style="text;html=1;whiteSpace=wrap;overflow=hidden;rounded=0;" parent="1" vertex="1">
          <mxGeometry x="980" y="305" width="180" height="120" as="geometry" />
        </mxCell>
        <mxCell id="NXZN5u0MRk8fPvRMISZ5-83" value="&lt;b&gt;&lt;font style=&quot;font-size: 13px;&quot;&gt;SQL-Queris&lt;/font&gt;&lt;/b&gt;" style="text;html=1;align=center;verticalAlign=middle;whiteSpace=wrap;rounded=0;" parent="1" vertex="1">
          <mxGeometry x="1016" y="450" width="60" height="30" as="geometry" />
        </mxCell>
        <mxCell id="NXZN5u0MRk8fPvRMISZ5-84" value="&lt;br&gt;&lt;div&gt;&lt;br&gt;&lt;/div&gt;&lt;div&gt;&lt;br&gt;&lt;/div&gt;&lt;div&gt;&lt;br&gt;&lt;/div&gt;&lt;div&gt;&lt;br&gt;&lt;/div&gt;&lt;div&gt;&lt;br&gt;&lt;/div&gt;&lt;div&gt;&lt;br&gt;&lt;/div&gt;&lt;div&gt;&lt;br&gt;&lt;/div&gt;&lt;div&gt;&lt;br&gt;&lt;/div&gt;&lt;div&gt;&lt;br&gt;&lt;/div&gt;&lt;div&gt;&lt;br&gt;&lt;/div&gt;&lt;div&gt;&lt;br&gt;&lt;/div&gt;&lt;div&gt;&lt;br&gt;&lt;/div&gt;" style="text;html=1;align=center;verticalAlign=middle;whiteSpace=wrap;rounded=0;" parent="1" vertex="1">
          <mxGeometry x="1000" y="390" width="60" height="30" as="geometry" />
        </mxCell>
        <mxCell id="NXZN5u0MRk8fPvRMISZ5-85" value="" style="shape=image;verticalLabelPosition=bottom;labelBackgroundColor=default;verticalAlign=top;aspect=fixed;imageAspect=0;image=data:image/png,iVBORw0KGgoAAAANSUhEUgAAAFYAAABHCAYAAACd3LDJAAAAAXNSR0IArs4c6QAAAARnQU1BAACxjwv8YQUAAAAJcEhZcwAADsMAAA7DAcdvqGQAAAp0SURBVHhe7ZxdcxPXGYCf1VqWJdmyMf7CBGywjR2gScDQwtDQAIWEEiaBFKaU6fSm8UUnDBP6EzrpTDOTMEM66R2Z5CI2DqEEUpLCJAMtJq4hkDjFX5AYXNNgY0fRp/W1u71AWulItgFLKwj2c7Xve14k8fjs2bNnjyRpmqYxQ8YxJSdmyAwzYg1iRqxBSPdzjFUUhWvXrnHlyhUGBwcZHh7G5XIRDAZRVRWLxYLdbqesrIyKigpqa2upra3FZrMlv9QDx30R29/fz7lz57h06RJerze5eVJkWaauro41a9bQ2NiIyfRgnnRZFdvX18eJEyfo6elJbpoSs2bNYtOmTaxduxZZlpOb7ytZEet2uzl8+DAdHR3JTTpyroXCRxYiO0rQzBY0yYSkhMHvwv/tdfzfjyb/E52Kigp2795NXV1dctN9w3CxXV1dvPXWW3g8nuQmHJXVSDWNWOuW4bPOJjLBJ5GAfC1A+HoXpuudOHsuoCqKUGMymdi8eTNbtmx5IIYHQ8WePn2a1tZWVFUV8oV1j5Pb+Ay+4mqm8uY2NYDW+Qmu8ydRwiGhbenSpTQ1NZGbmyvks41hYk+cOMHx48dJfHlrcRn2p3bhq2gQaqeKLewlfOZd3H2XhHx1dTV79+7FarUK+WxiiNjTp0/T0tIi5Bz1jcjrfkPAZBHy6SIB+f0djJx8Rxge6uvr2bNnDzk5OUJ9tsj4YNTd3U1ra6uQK1n1DOrPf5dxqQAa4FnwY4pfeJkcS56e7+3tpbm5WajNJhkV63a7OXjwoDCmlqzajG/5cygZPy9EfCU1FG7biynHrOfa2to4f/68UJctMiq2tbVVuPo76hsZW75VqDESf3E1pVubhFxzczM+n0/IZYOMie3r6+PChQt6bC0uR17/W1Qkoc5o3HOWUrxyox77/X6OHj0q1GSDjIk9duyYENvX/5qAFD8tYxTKGluKIqy0i/PQTKKufA5rUYket7W1MTo68Q2GEWREbH9/P1evXtXjovpl+MoWCTUANpPGjuIwj1pVfuZQKMsR57eZIoiM/ckX9FhVVU6dOiXUGE1GxLa1tQmxecUvhDjG1qIIRdHZT0AFr2rcMBGc/wT2kjl63NHRQSQSEWqMJG2xkUiEixcv6nHhvFq8hY8INQDLbArzLLenBhENjjpz8BsoNqJBzpKf6rHf7+fy5ctCjZGkLba/vx+/3x9PLFiW2AxAjqSxKj8+pv7TLTMYSvut74ilYZUQ/6DEJo6tALb6RiEGaMjTsEdX9UYjEpf82Vni88g2Cucu0OMrV64I7UaSttiBgQH92Gy14TY7hHaAemu8t170maa08DJVTJW1+vHQ0FDWxtm0xd66dUs/dsytGXfeWmm+rVIDrgbSfst7ImSdpR+rqip8XiNJ+3/pdDr1Y5NjttAGUGDSsETfxauAz8AL1njYy+cJscvlEmKjSFtsMBjUj9Wc1DXQPFP8xPcq2ZUKYMoTHzwGAgEhNoq0xSYuuGjjDAOJ42k2x9YYJllcNkxedDeKtMVaLPGlQJOWepsaSDj1bQm9N1sowYSpYNLnNZK0xQrP+P3uxCbg9t1VMNpJHDLkStmVGxgdEmK73S7ERpG22LKyMv14bCg+9UpkKHy715okWBC9+8oWyvfDQlxaWirERpG22IqKCv3YN3KTAsSHewD9wfjbPGZLHS6MJM99Uz8uKCj44fTY2tr4BBwg8t/UzRg9ARNqtKPOt2hUWbJzAbFICt9d/UqPkz+rkaQtdtGiRcJzfOn6l0I7gEeR6I3eGEjApsIIeVkYa6WBy6iRsB7X19cL7UaSttiCggJhB4qzqwObMibUAJz1yPqGjEIZthVHMPzmtq9dPzSZTCxfvlxoNpK0xQKsWhVfRVIjEdTOT4V2AJciccYTX3yZm6tRFr3VNYIC3zDO3vh+g/r6ehyO1HUMo8iI2BUrVlBYWKjHns9PYYukPsC75JP5l1tG0eBWGEYiqTcUmUACAm2HhdzGjfHnYNkgI2LNZrPwwSOhIJEzzZjG8fZvn8wbQ2beHskloo1TkAHsN77CnXDRqqqqYvHixUKN0WRELMC6desoLy/XY1fv59j7x99daJRQAGvAhevk20Jux44dQpwNMiZWlmV27dqFJMWl3fr4HfJHvhHqjMSqhQn8/S+ExuLD0OrVq7M6zYqRMbEADQ0NPP3003qsqQrOD97ANtov1BlBnhYiePwA/qFBPSdJEtu3bxfqskVGxQJs3bqVJUuW6HEkGMD5/n4cN7uEukxiDbgI/e01fIPxx0SqquJ0Ojlw4ADhcHwumy0yLlaWZZqamqiurtZzaiTM0JE3sHa8j4XM3dJKQP6Nr/A0/xHfzfg6haZpeDweFEXhiy++4NVXXyUcDqMOfErog+fR3NeE1zECQ7ZxEl1QfvPNN+nr6xPy1qIS8tf+ksC8xyfcwX03FPhvETh7GPfVTiGvqioejyfl2dav1pTxbMFHoISQ8isxP9uK5Ij/8TONYWKJ7jloaWnh7NmzyU3YS+eQs/hJLA0/wSPf3deLciUNebALrecczt74XoYYmqbhcrlQkrbRP1HiZO/jvZgT1oONlmuo2Bjt7e0cOnSIsbHUW12Aonk1SBU1hOzFFFRUIeVZwSRDKMDYd8OER25g9Q7jvNKZsjWe6EVq5cqVbNu2jf3799Pd3a23jSc1hpFysyIWwOv1cuTIEdrb2zP6eKSyspKdO3fS0HB7+30gEOCVV16hp6dnUqkxjJKbNbExhoeHOXnyJOfPnxceRN4rNTU1bNiwgWXLlglzZ6LbiY4ceInni05NKjWGEXKzLjZGKBSis7OT7u5uent7GRkZSS4RMJvNLFy4kIaGBlasWDHpkwB14BPCp14EJXXYmIjbct9DclQlN02J+yY2GZ/Pp3+XNhAIoCgKeXl52O12SktLKS4uTumZExE+sRt18Exy+o5I+XOjPTd9uQ+M2Eyieb8l/OGOKc1XMzUsZPwG4UFAyp8TPa3vXY7m/R/hD3dO6Y+SyEMplgdA7kMrlvss96EcY5NJZ8zFXklwYwuOsoXJLZPyUPfYGFPtuZoGh7pm86c/v8bw4NfJzZMyLcQyBbmaBocGfsS50Sq+9ym8vv/1e5I7bcRyD3JjUj8bjc9n71XutBLLXcjVNGgZeEyQGkMN+gidfPGuxuppJ5ZJ5MZ6avvofCEP4DAHeGlRO6WRvuhs4XpyicC0mBVMROJsIdZTJ5Ra1055XvwXlyRHNebtHyHlFgi1MaZlj40h5c/BvPU9cFTfQepnglQAzX0N9cu/CrlEprVYAMk+h+CGd/k6kvoLSA5zgD11n1Gel7qrB0D55nhySmfaiwVwlM5n374/UFIY30Yf66llE0gF0Lw3klM6M2KjzCqfz76X91FSaEk4/SeWCkBufL9aMtP64jUe3928TuAfTcwO3vl7t6ba7ZjXH0hOw4zY8dF83xI+PvnagiTnYt7+MdKs1N9lYGYoGB/Jfnu2IBVP8PtgJjM5T+2fUCozPXZytMgYyn8Oon1zDNV1DSm3ANOc1chP/B6p+NHkcoEZsQYxMxQYxIxYg/g/N7U2RHeuXzIAAAAASUVORK5CYII=;" parent="1" vertex="1">
          <mxGeometry x="997" y="367.5" width="86" height="71" as="geometry" />
        </mxCell>
        <mxCell id="NXZN5u0MRk8fPvRMISZ5-86" value="&lt;h1 style=&quot;margin-top: 0px;&quot;&gt;&lt;img alt=&quot;&quot; src=&quot;data:image/png;base64,iVBORw0KGgoAAAANSUhEUgAAAFIAAAA4CAYAAABuQ6+nAAAAAXNSR0IArs4c6QAAAARnQU1BAACxjwv8YQUAAAAJcEhZcwAADsMAAA7DAcdvqGQAAA5hSURBVHhe7Zp5fJTVuce/7+yTzJIJmZkESBACCWFJQIIkIJuIkgAKuFDgctVW6V1qq70V914+2ntvW/FqFa1KC8gSVHYSBYUoArYSiCwmISQhZN93Mvu873v/IM4lg1JjWRLr9/N5/5jnPM9zkt88Z855zzmCLMsyfQhRFGltbcXr9RIeHo5Opwt2uS4IfUVIv1+ksqoSv9+P3WbDaDTS0dGB2WwOdr0uKIINvZGysnKys7Npb2sn0m4nNDQUQRBQq9WIohjsfl3o1RXp9fk48MkBbHY7Xo+H6OiBqNRqXE4Xsiyj1WoIDTVgNBqCQ685vboiOxoa8B7PxdTeSnzsEEpKziL6RWJioonqH4VKpUaWJSRJCg695vTqigTwd3ZS8oeVaAfdQMupEzj9IuYhsWgH3UDM+AmoI6z4/f7rPun0eiEBZEmketPb6KMHgQBh41NxV1fSdjCbpg/fxzBmHDqrDZU5DP0NQ9APjUcd3i84zVWlTwgJIPv91GxYg7+jjUG/WE7L/j342lrR9IsgdMRoNPYoJLcLZ3EhjdvewVNThT42DkPiWIzJKWistuCUV5Q+IySAt6Ge4scfxjJpKqEjEzGnTsaZdxLJ78MwJhlffS0tmdvQj0jE19xE2PSZdH55gvMncvG1tmBKnkD49NsQ1Org1H83fUpIgNo/vUbb/j1Y592DIWUyglKJK/8kCo0Gb201/e5ZiqDR0JixFuviBwJxsiTS/NEH1G7ZjH3ePdhm3wmKKzfX9jkh3aUltH2UhTrCivN4DlJLM7LPi3HqrfRbuuyCz5l8fPV1GKfMQHR00n4wm/Mnj6MM74fSZMbX0YG7ppqB9z9EyA1Dgrv4TvQ5IZEkmrdvpt/dS3DkHKZ957uowiyItdUIoaFYHvh3OvbsImzBIs4f/gTR58OQMhl9bByS00Hdexvpf/9PEV1Oyt54lbDxE+h387TgXnpM3xMSaHt/Bwq1Cl9NFQqlkrCF94FKzfl31tCetQ3BFIZp3iKMt9yOoNEG4mpWr8K2cCkq0/+/VlZuehut3Y7t1lkB23fhyv1IXEPaPsrEV1+H5Z6lKMP7IWi0OA98iNhYj3pgDJqh8XTsfx/J6QzEtO77AOON47uJCBC95D5clZW0Hj3Szd5T+pyQ3tpqZFHCnD4fx7HPCRmXQuu611GGhSMbTFgeehTbr1ZguXsJNb99Fsntxl1ajL+jHeO4CYiOTjq+OErtls1UrH2Lyo3rENRqPM1NwV31iD43tFuytuNvbqTj470YxiSji43DdNtcHH89gKBQYJh6W8DXVXCKtoPZuCsr0A8bjujxojAaCU0YRUjssEuq8++hTwkpSxI1b76CMXEszVs3EjoyCduDP8NTXkrnZwfot/jHAPga6jj/+SG8DfUoDUZCx45HPyweQaEMTnnF6FNCtuzfS33GWvD7iP39Kjpzj2CaOIWmLRuxzLqDztwjSG432v4DCRmbjMoUFpziqtFnhPS1tlKTsQ48bux3L0IXcwNthw/QtH0zqgExhCSMwjJ5OmqjKTj0mtA3hJQkzq16CWVICBHTZuCpraY19yiiyYRl+m3obXY0Gg0KhQKl8uoN38vRJ4Q8++pLNB3Yj+WmFJySjDZhJP2nzcBkNuPxeFAolGg0ar76VwRBCE5x1en1Qp5bs5qKjWtRJk/AfuddSFYbBoMBu82GSqXC4XAQEhKCIAg/CPlNlG3eSNXJk8QsvY/+8cNpamrGbDaj0aipq6snMtKO0+nCaDTg9XoD5zjXg14rZMeZMzh9XupFmaSkRLxeH62trdjtF/YVRVGkqakJQaEgNDQUvU6H4gru5vSU69fz38AUH094XDxerxdZlqmvr8Nms0LX0WxHRwdarRaFIIAsdxvO16M2elVF+nw+ZFlGo9EEbIcPf0ZERAQxMdG43R48Hg86nZawsDAcDgd6vR5BEHC53AiCgEajRqFQXPPqvLa9/Q2Ki0sCIrrdbioqKpBlmdJz56iuqUGlVhEVFYnFYgFBwOPxolQqUSgUhIaGoNNpr9s5d6+pyLOlpZwtOUtUVBSyLKPT6bDZrBSeKcJoNCIgM2LEiIB/U1MTZrM5cEnA5XKhVCpRKlVoNNd+wuk1Qh749CBWawQjg8RqbGwiIWE4xcUl+Px+4uOG4XQ68Xg8GAwGXC4Xao2G0K4lkM/nuy4zd68Z2iaTidaW1sBnr8/H6cIzDB8eD8CwYUOxRvQjN/cLSkvPQdekYrFYMHRdYZFl+bpdFug1QiaOHkVlVRUOhwNRFDl86DBjxiQhCAIdHeepqKjE5XJhtVoJCdHT1t6Ow+nE5/MFcvj9flQqVbe814peM7QBOjs7yc7+BFESGThgABHWCARBwGwyYbFYEASBM0VFxA0b1jVTu3A4nUiihCCAWq0mLOza7fhcTK8SEkCSJHK/OE5dXT2pKTcRERERaCsvryA83ILRaISuRfmFCpZQKhUIghBou9b0OiG/wuv1UlJyFrfbTXi4BVGSUClVGAwGnC4nSoUSjVZDmNmMSqWio6ODkJCQH4b25ejsdNDY2EBLSysKpQKb1YrJZEKv1weEa25uweNxIcswYMCA4BRXnR4L+fJL/8sjj/6S/Lw82tvb0el03DhuXLDbZTlXWkp+fh7D4uIZNGgQHo+nRzdvvV4fbrcLr9eLJMkoFEJgKVRYWEhqampwyFWnx0Kmp81i3dvr+XDvHnw+P3Fxcfh8PsrKykhKSuLIkSOMvXEspWdLSUxMpLS0lJaWFu6cN4+szN1EWG0UnSkkOiaGozlHSUtLw+F0kJaWHtxVn6LHy59bbpnBvn0foVJdWPQWFp6msPA0i5csobW1lXHjxnHi+AkWL1nCoUOHaGpuwul0kpW5m9lz5lB27hwDo6OZOnUasbFDGDFyJImjE4O76XP0WMjQ0FAK8vKZOGlSwKZUKtmckUFlZSVanY7w8HDee/ddLBYLsiTjcrno338A27ZuxdHZGdipKSsrJyIiggEDB17UQ9+kx0P7mxBFsdt5yVeL46/eNpRK5SU+ctD2V1/mOwl5uqCA7Oz9OBwO7PZI5i9Y0G2y+CI3l88++wyXy0ns0KHMnj2n29XkD/fuJXZoLEOHDgvYvg632837WZmUlJSg1WpJSZ1ISkpKsFuvoMdDe/3bb7Ng/jyqqqoQBIGPs7M5fboAuvYT/+1f/4V/XvpPVFZW4PF4Wf3WW0yfNpXSs2cDOV5b9So5OTkXZb2UtrY2br9tJhs2bEAQBBobm9i8aVOwW+9B7iHJN46VN2dkBJtlWZblF1eulG8anyzX1tYGbJIkyf/xy0flmTNukSVJkmVZlufOTpc3bdp4UeSlbNiwXp6YMkEWRTG4qVfS44o0GI0UFRUFm5FlmXXr1rL88SeIjIwM2AVB4Jlnf01xcTE5Od/+xpfRYKS9vZ36urrgJgAOHzpE2qzbSRw1ih/ffz8NDQ0AZGVm8vSTT/I///1fTEpNoaysjPS0WdTUVAdi38/K5NFHHgGguLiIH917D0mjRzHvzjvIz8sDID8vj0UL7+Xdd97h5omp/PUvf+Hgp58GcgTTYyGfe+55Nm3cwKIfLSTvyy8D9urqalqam0n9mt+wsLAwBg8eQuHpwuCmbyQtPZ1x45KZeesM3nzjj3g8nkBbUVERyx56kKeeepqco0eJjIpi+WO/gq49zMzM3RgMBt58azUDBgxAp9ORlZkViN+4YQNJSUl0dnayaOFCZs+ZS87RY8yfv4AHf/KTC+/wTge5ubmcOH6c1X9eQ/zw4cTFxQVyBNNjISdPmcKBg4ew2+zMmZ3Oiv/8NZIk4XG7AdDp9cEhAGh1Wvx+f7D5G9FoNKxbv57nfvMb1qxZw/SpUyjIzwfgnc0ZpE6ciD0ykorKSqZPn87BTz8N7EWGhITys4d/zqjRo1Gr1dx770J27dwJQF1dHbm5ucxfsIC9e/ZgMBqZkJJCeUUFKamp1NXVUlJSAoDL7Wb5E0+QkJBAeHg4kVFRF/2F3emxkABRUVG8/MorZH3wAdu3bSMjYxNR/fujUqkoKjoT7I4oilSUlzN48ODgpssiCAILFtzFwUOHmTxlCg88cD+SJFFbU8uXp07x+PLHeHz5Y7z++mskjRkTqNpBg2K6LavmzJ1LcUkx5eXl7Nq5g/TZczCbzdTW1tDU2BjI88TjyxkzdmzgCwkzmy+cD30LvpOQXzFq1GimTpvGqZMnCQkJ4daZM3nzjTcuOQ7dumULKrWaSRct4nuCVqtl2bKfUl1VRXNzM1ablZTUVHbs3NXt0XeNhuATRIPBQHpaOrt372LHjh0sXrIYAKvVRmRk5CV5EhISvjbP5fj2nl0se+hB9uz5gPy8PHbu2MHH2dncfPNkAJ57/nm+PHWKZQ89yOFDh8g9dowXV67k2Wee4Xe/+z3ai9aSp06eJCszM/AEi5+xaROrXn2FL3JzyT12jJUvvEB8/HAiIiK46+672dM1GhoaGjiak8PuXbu6xQdz78KF7Ni2HY/Hw003TQDg9lm3U1dXxyt/eJm62lpOFxSwYf364NBvhXLFihUrgo2Xo7CwkN27drFl6xYqyst4+Oe/YN78+QAYjSbunDefgoJ8NmdsYtWqVxFFkT+++QaTJt0cyFFScpaqykpOFxQEnrl33NGtAkRJIisrky3vvcfHn3zM4CFDeOHFFzEYDERGRjJi5EjWrV3LunVrOVN4hmm3TGfgwGiam5sRFEK3V1iAgdHRHDt2lMVLljB8+IWK0+v1TJ06je3btvKn1as58vkRkpOTSUhIwOFw0tBQT1r6t9xMCV4PXUk2Z2TIIxOGy/v27Qtu+t7xnV4Re0Lm7t08/dSTSJLEhJQU/rxmbbDL94KrLiRdxwalpaVYLBbsdntw8/eCayLkPwI9nrV/4Ov5QcgrxP8BZqGbjVmlwdsAAAAASUVORK5CYII=&quot;&gt;&lt;img height=&quot;56&quot; width=&quot;82&quot; style=&quot;background-color: transparent; color: light-dark(rgb(0, 0, 0), rgb(255, 255, 255)); font-size: 12px; font-weight: normal;&quot; src=&quot;data:image/png;base64,iVBORw0KGgoAAAANSUhEUgAAAFIAAAA4CAYAAABuQ6+nAAAAAXNSR0IArs4c6QAAAARnQU1BAACxjwv8YQUAAAAJcEhZcwAADsMAAA7DAcdvqGQAAA5hSURBVHhe7Zp5fJTVuce/7+yTzJIJmZkESBACCWFJQIIkIJuIkgAKuFDgctVW6V1qq70V914+2ntvW/FqFa1KC8gSVHYSBYUoArYSiCwmISQhZN93Mvu873v/IM4lg1JjWRLr9/N5/5jnPM9zkt88Z855zzmCLMsyfQhRFGltbcXr9RIeHo5Opwt2uS4IfUVIv1+ksqoSv9+P3WbDaDTS0dGB2WwOdr0uKIINvZGysnKys7Npb2sn0m4nNDQUQRBQq9WIohjsfl3o1RXp9fk48MkBbHY7Xo+H6OiBqNRqXE4Xsiyj1WoIDTVgNBqCQ685vboiOxoa8B7PxdTeSnzsEEpKziL6RWJioonqH4VKpUaWJSRJCg695vTqigTwd3ZS8oeVaAfdQMupEzj9IuYhsWgH3UDM+AmoI6z4/f7rPun0eiEBZEmketPb6KMHgQBh41NxV1fSdjCbpg/fxzBmHDqrDZU5DP0NQ9APjUcd3i84zVWlTwgJIPv91GxYg7+jjUG/WE7L/j342lrR9IsgdMRoNPYoJLcLZ3EhjdvewVNThT42DkPiWIzJKWistuCUV5Q+IySAt6Ge4scfxjJpKqEjEzGnTsaZdxLJ78MwJhlffS0tmdvQj0jE19xE2PSZdH55gvMncvG1tmBKnkD49NsQ1Org1H83fUpIgNo/vUbb/j1Y592DIWUyglKJK/8kCo0Gb201/e5ZiqDR0JixFuviBwJxsiTS/NEH1G7ZjH3ePdhm3wmKKzfX9jkh3aUltH2UhTrCivN4DlJLM7LPi3HqrfRbuuyCz5l8fPV1GKfMQHR00n4wm/Mnj6MM74fSZMbX0YG7ppqB9z9EyA1Dgrv4TvQ5IZEkmrdvpt/dS3DkHKZ957uowiyItdUIoaFYHvh3OvbsImzBIs4f/gTR58OQMhl9bByS00Hdexvpf/9PEV1Oyt54lbDxE+h387TgXnpM3xMSaHt/Bwq1Cl9NFQqlkrCF94FKzfl31tCetQ3BFIZp3iKMt9yOoNEG4mpWr8K2cCkq0/+/VlZuehut3Y7t1lkB23fhyv1IXEPaPsrEV1+H5Z6lKMP7IWi0OA98iNhYj3pgDJqh8XTsfx/J6QzEtO77AOON47uJCBC95D5clZW0Hj3Szd5T+pyQ3tpqZFHCnD4fx7HPCRmXQuu611GGhSMbTFgeehTbr1ZguXsJNb99Fsntxl1ajL+jHeO4CYiOTjq+OErtls1UrH2Lyo3rENRqPM1NwV31iD43tFuytuNvbqTj470YxiSji43DdNtcHH89gKBQYJh6W8DXVXCKtoPZuCsr0A8bjujxojAaCU0YRUjssEuq8++hTwkpSxI1b76CMXEszVs3EjoyCduDP8NTXkrnZwfot/jHAPga6jj/+SG8DfUoDUZCx45HPyweQaEMTnnF6FNCtuzfS33GWvD7iP39Kjpzj2CaOIWmLRuxzLqDztwjSG432v4DCRmbjMoUFpziqtFnhPS1tlKTsQ48bux3L0IXcwNthw/QtH0zqgExhCSMwjJ5OmqjKTj0mtA3hJQkzq16CWVICBHTZuCpraY19yiiyYRl+m3obXY0Gg0KhQKl8uoN38vRJ4Q8++pLNB3Yj+WmFJySjDZhJP2nzcBkNuPxeFAolGg0ar76VwRBCE5x1en1Qp5bs5qKjWtRJk/AfuddSFYbBoMBu82GSqXC4XAQEhKCIAg/CPlNlG3eSNXJk8QsvY/+8cNpamrGbDaj0aipq6snMtKO0+nCaDTg9XoD5zjXg14rZMeZMzh9XupFmaSkRLxeH62trdjtF/YVRVGkqakJQaEgNDQUvU6H4gru5vSU69fz38AUH094XDxerxdZlqmvr8Nms0LX0WxHRwdarRaFIIAsdxvO16M2elVF+nw+ZFlGo9EEbIcPf0ZERAQxMdG43R48Hg86nZawsDAcDgd6vR5BEHC53AiCgEajRqFQXPPqvLa9/Q2Ki0sCIrrdbioqKpBlmdJz56iuqUGlVhEVFYnFYgFBwOPxolQqUSgUhIaGoNNpr9s5d6+pyLOlpZwtOUtUVBSyLKPT6bDZrBSeKcJoNCIgM2LEiIB/U1MTZrM5cEnA5XKhVCpRKlVoNNd+wuk1Qh749CBWawQjg8RqbGwiIWE4xcUl+Px+4uOG4XQ68Xg8GAwGXC4Xao2G0K4lkM/nuy4zd68Z2iaTidaW1sBnr8/H6cIzDB8eD8CwYUOxRvQjN/cLSkvPQdekYrFYMHRdYZFl+bpdFug1QiaOHkVlVRUOhwNRFDl86DBjxiQhCAIdHeepqKjE5XJhtVoJCdHT1t6Ow+nE5/MFcvj9flQqVbe814peM7QBOjs7yc7+BFESGThgABHWCARBwGwyYbFYEASBM0VFxA0b1jVTu3A4nUiihCCAWq0mLOza7fhcTK8SEkCSJHK/OE5dXT2pKTcRERERaCsvryA83ILRaISuRfmFCpZQKhUIghBou9b0OiG/wuv1UlJyFrfbTXi4BVGSUClVGAwGnC4nSoUSjVZDmNmMSqWio6ODkJCQH4b25ejsdNDY2EBLSysKpQKb1YrJZEKv1weEa25uweNxIcswYMCA4BRXnR4L+fJL/8sjj/6S/Lw82tvb0el03DhuXLDbZTlXWkp+fh7D4uIZNGgQHo+nRzdvvV4fbrcLr9eLJMkoFEJgKVRYWEhqampwyFWnx0Kmp81i3dvr+XDvHnw+P3Fxcfh8PsrKykhKSuLIkSOMvXEspWdLSUxMpLS0lJaWFu6cN4+szN1EWG0UnSkkOiaGozlHSUtLw+F0kJaWHtxVn6LHy59bbpnBvn0foVJdWPQWFp6msPA0i5csobW1lXHjxnHi+AkWL1nCoUOHaGpuwul0kpW5m9lz5lB27hwDo6OZOnUasbFDGDFyJImjE4O76XP0WMjQ0FAK8vKZOGlSwKZUKtmckUFlZSVanY7w8HDee/ddLBYLsiTjcrno338A27ZuxdHZGdipKSsrJyIiggEDB17UQ9+kx0P7mxBFsdt5yVeL46/eNpRK5SU+ctD2V1/mOwl5uqCA7Oz9OBwO7PZI5i9Y0G2y+CI3l88++wyXy0ns0KHMnj2n29XkD/fuJXZoLEOHDgvYvg632837WZmUlJSg1WpJSZ1ISkpKsFuvoMdDe/3bb7Ng/jyqqqoQBIGPs7M5fboAuvYT/+1f/4V/XvpPVFZW4PF4Wf3WW0yfNpXSs2cDOV5b9So5OTkXZb2UtrY2br9tJhs2bEAQBBobm9i8aVOwW+9B7iHJN46VN2dkBJtlWZblF1eulG8anyzX1tYGbJIkyf/xy0flmTNukSVJkmVZlufOTpc3bdp4UeSlbNiwXp6YMkEWRTG4qVfS44o0GI0UFRUFm5FlmXXr1rL88SeIjIwM2AVB4Jlnf01xcTE5Od/+xpfRYKS9vZ36urrgJgAOHzpE2qzbSRw1ih/ffz8NDQ0AZGVm8vSTT/I///1fTEpNoaysjPS0WdTUVAdi38/K5NFHHgGguLiIH917D0mjRzHvzjvIz8sDID8vj0UL7+Xdd97h5omp/PUvf+Hgp58GcgTTYyGfe+55Nm3cwKIfLSTvyy8D9urqalqam0n9mt+wsLAwBg8eQuHpwuCmbyQtPZ1x45KZeesM3nzjj3g8nkBbUVERyx56kKeeepqco0eJjIpi+WO/gq49zMzM3RgMBt58azUDBgxAp9ORlZkViN+4YQNJSUl0dnayaOFCZs+ZS87RY8yfv4AHf/KTC+/wTge5ubmcOH6c1X9eQ/zw4cTFxQVyBNNjISdPmcKBg4ew2+zMmZ3Oiv/8NZIk4XG7AdDp9cEhAGh1Wvx+f7D5G9FoNKxbv57nfvMb1qxZw/SpUyjIzwfgnc0ZpE6ciD0ykorKSqZPn87BTz8N7EWGhITys4d/zqjRo1Gr1dx770J27dwJQF1dHbm5ucxfsIC9e/ZgMBqZkJJCeUUFKamp1NXVUlJSAoDL7Wb5E0+QkJBAeHg4kVFRF/2F3emxkABRUVG8/MorZH3wAdu3bSMjYxNR/fujUqkoKjoT7I4oilSUlzN48ODgpssiCAILFtzFwUOHmTxlCg88cD+SJFFbU8uXp07x+PLHeHz5Y7z++mskjRkTqNpBg2K6LavmzJ1LcUkx5eXl7Nq5g/TZczCbzdTW1tDU2BjI88TjyxkzdmzgCwkzmy+cD30LvpOQXzFq1GimTpvGqZMnCQkJ4daZM3nzjTcuOQ7dumULKrWaSRct4nuCVqtl2bKfUl1VRXNzM1ablZTUVHbs3NXt0XeNhuATRIPBQHpaOrt372LHjh0sXrIYAKvVRmRk5CV5EhISvjbP5fj2nl0se+hB9uz5gPy8PHbu2MHH2dncfPNkAJ57/nm+PHWKZQ89yOFDh8g9dowXV67k2Wee4Xe/+z3ai9aSp06eJCszM/AEi5+xaROrXn2FL3JzyT12jJUvvEB8/HAiIiK46+672dM1GhoaGjiak8PuXbu6xQdz78KF7Ni2HY/Hw003TQDg9lm3U1dXxyt/eJm62lpOFxSwYf364NBvhXLFihUrgo2Xo7CwkN27drFl6xYqyst4+Oe/YN78+QAYjSbunDefgoJ8NmdsYtWqVxFFkT+++QaTJt0cyFFScpaqykpOFxQEnrl33NGtAkRJIisrky3vvcfHn3zM4CFDeOHFFzEYDERGRjJi5EjWrV3LunVrOVN4hmm3TGfgwGiam5sRFEK3V1iAgdHRHDt2lMVLljB8+IWK0+v1TJ06je3btvKn1as58vkRkpOTSUhIwOFw0tBQT1r6t9xMCV4PXUk2Z2TIIxOGy/v27Qtu+t7xnV4Re0Lm7t08/dSTSJLEhJQU/rxmbbDL94KrLiRdxwalpaVYLBbsdntw8/eCayLkPwI9nrV/4Ov5QcgrxP8BZqGbjVmlwdsAAAAASUVORK5CYII=&quot;&gt;&lt;/h1&gt;" style="text;html=1;whiteSpace=wrap;overflow=hidden;rounded=0;fillColor=none;" parent="1" vertex="1">
          <mxGeometry x="240" y="143" width="90" height="30" as="geometry" />
        </mxCell>
        <mxCell id="NXZN5u0MRk8fPvRMISZ5-87" style="edgeStyle=orthogonalEdgeStyle;rounded=0;orthogonalLoop=1;jettySize=auto;html=1;exitX=0.5;exitY=1;exitDx=0;exitDy=0;" parent="1" source="NXZN5u0MRk8fPvRMISZ5-20" target="NXZN5u0MRk8fPvRMISZ5-20" edge="1">
          <mxGeometry relative="1" as="geometry" />
        </mxCell>
        <mxCell id="HMaE7BMS0NF-Ta2ndvvf-1" value="&lt;b&gt;Machine Learning&lt;/b&gt;" style="text;html=1;align=center;verticalAlign=middle;whiteSpace=wrap;rounded=0;" vertex="1" parent="1">
          <mxGeometry x="1009" y="630" width="60" height="30" as="geometry" />
        </mxCell>
        <mxCell id="HMaE7BMS0NF-Ta2ndvvf-2" value="" style="shape=image;verticalLabelPosition=bottom;labelBackgroundColor=default;verticalAlign=top;aspect=fixed;imageAspect=0;image=data:image/png,iVBORw0KGgoAAAANSUhEUgAAAD4AAABCCAYAAAAPIWX+AAAAAXNSR0IArs4c6QAAAARnQU1BAACxjwv8YQUAAAAJcEhZcwAADsMAAA7DAcdvqGQAABBGSURBVHhe5Zt5XFXV2se/+zBowkGwi2LvvR6w0nDA9FVpcKTMCdIrdi3KocS6+VYiApZezXIemhxSUgZNabxpekvNLqUSKJkyOKW9Mny6KUlxVCCQw3nuH4ezY+9zDmAY9bn3+/msP/bzPL+197PX3muts/Y6iogI/4UY9Ib/Fn6XiYsIJpMJRVGcFpPJRHMf1N9l4ocOHaK4uFhvVikuLubw4cN68zXxmyburNXMZjNr164FYOajfbCcitGUmVP6ALBmzRrMZrNO7bxOZ/xmiaemphIUFMSaNWuoqqriq6++Yvz48QQEBJCWlgbAX0Z00ct4YKTNlpaWRkBAAOPHjycrK4vq6mo2bNhAUFAQycnJepkDym/Rq6empjJ16lSsVisAfn5+mM1mRAQPdwP33NmJEYMC+b+He6EoikYrIqzblsueA4V8mlWMxWJFURR8fX0pKysDwGAwkJSUxJQpUzTa+rR44vWTnh4VQuax8+ScuojRy5MZk3szPaoX7W9so5c5paS0ktfTcli95RhXKmrodZs/d/XpyPq0vEaTb9HE6ye9LG4AcVP7IiLszSiid3B7OvyhaQnrKSmt5OjJEkYMDERRFF5K/orZKw9iMBjYuHEjjz32mF7ScomnpqYSHR1NbW0tS+MGED+1rz7kuvJyylckrLAln5iYSHR0tMbfIomLCEFBQRQVFfFkVAhr5oXpQwBwD34VAMupmF90rOepF9PZ8FYeJpOJgoICTX/RIr26oijMnj0bgMyj55s85DQHESHr2HkAEhISHDrJFmlxgOrqajp27EhZWRm7EscwclCQ6rO3XHOp3/K79xcQ8dcP8fX15cKFC7Rq1UoT2yItDpCXl4fZbMbo5Umfbh307utOn+4dMHp5cOnSJfLz8/XuprV4RkYGO3fuJCsri7Nnz/Ljjz8C4OPjg8lkolevXgwePJhRo0bh7++vlwMQGRnJBx98wN+eDGXBM3eCk5Y+kvu15rip9O3VVXNsb/nnV2eyeH02kZGRvP/++5oYl4mLCGlpaSxatIjTp0/r3U7x8PBg9OjRzJo1iwEDBqh2s9lMQEAA1toaCj+PpkPdOP1rJ15SWolp6Cbc3Dy4cOECvr6+PweJE4qLi2Xw4MECCCD+7dvLwxMflVfXJspHn+yXL7Lz5EDWUbm99/8KIK1b3yDdet4u7u7uqiYiIkIKCgokMzNToqKiBJARAwPFcirGodg1R3K/liO5X6vHjRV9vL5ey6kYGT7AJIBERUVJZmamWK1WERFxaPEvv/yS8PBwvv/+e/z82vHkUzHcP3Yc7u4e9cN4aeUS3tq6GaNPW2bEz+OmP3biypXLHEz/hH/u/Qc//VSJwWBQp6UAr84dwlOP3K6ph3otb29xfQu6Qh/vbFhb82YOM5d8rh536tSJoqIi7aOem5vLkCFDMJvN9A+9k0VLX6LdjTeqIjUu5yjRU6IwuLkxa86LBAbdovF/lZ1JSuJqNemZU/rwwMgu9OvZQTOsuHrU7Yl8V/KDxm/npg62a9LH26l/A0SEL/NLeG/3GV5JPara1F7dbDYzZswYzGYzQ8OG8dq6jU6TBli/7jVEhBGj/6xJ+scfSnn9lWUkrX9V09IrZw+if0iAw1jaEiiKQv+QAFbOHqSxq4nHxcVRVFREcLceLFy6Cg8P7aNt55uzZziSfYg2Xt7cOyJCtZ/IO8bi+XEczzvKDW3aEDFugkbnDPtv7OvFtdRnAMjPzyclJQV3Dw8WLFxG69at9XEqn3/2KQB9Q++iVV3ckUNfsP615fxUWUlI734sWPoaIyMidcrfFwaAV155BavViqWmhgmR4fTt1dVlSXx9NQA33mgbr8+cPsHmTWuxWq2MjIjkiafjMPq01Z7FBe7Brzq8583hWuozVFdXOwzuDWHvC7e/t43t724lJXE1tbW1DBs5hohxE9T3uP5gEb/8ANl5F1pkjq5HRMjOu0D88gMau5Keni5hYWF0696DT9P3a5zOuHTJzLtvv82ihQuoqakB4JYuwcTMfh6DwdZl/PhDKW9t2ciJvGMa7StzhvD0xJYdztZuzSFmseNwZjhwwHYn6s+0GqJtW1+mPfFXnps7D+p6zQcnRqtJnzl9giXz4zmRdwxvo5Enpj/D8JGjAdhzoEBTV0vw8X7bOaOiosjMzKSwsBAAZdiwYbJv3z42JacyavTPvXRjnD1zhsED70RRFDw8PBER2ncIoOTCd1gsFgYOGsrzLy7F18+Py5cvMTzsbkRqKfosWl1p0b+P13vKeqG0gsAhSbi5O05ZDYcOHQKgX/9Q1dgYu3Z+yOhR90HdO3T1ajU1NVf517fFWCwWDAYDI0ffj6+fHwA+Pm0ZOGgoFouV19NydLX9ery+LRdLrZXw8HDtPB1QAOnc+WYysrJV4/3hI1EUhQ93fawJBti1cwdPPjENq9VK/3u6MPaxO7m1500AnM3/jh1JWWSnn0FRFJYsf5lhw0cBcOJ4HpMffgBvLw++3vOoZn1N3/K/lPrveElpJV1HpFBRaeHw4cP069dPE2sA6B+qbW1FUVBwnGV9//33zJoZg9VqZeKsMOa/8RAhdwRyg5cnN3h5EnJHIPM3PsTEWWGICItenEdp6UUAbu3SFaPRh/KKGo6eKNFXfd05erKE8ooafH19CQkJ0bvtidt+H9v5cNfH7Nj1kcYGkLzpDcrLr9A/rAsTpg+k5qqFxBd3M6H3cib0Xs4bC/dQc9XChOkD6R/WhYryct59a6utzh1/58qVy/S6zZ8RgwI19epnXM09BhgxMJBet/lTVlZGUlKSxoeaeBPf73379gIwdqrtRiUv28euzdlUXK6i4nIVO1MPk7LcNrMb89gdABzYn47VamVz8kYA7uzdsUXm7IqicFefjgCsWLHCYQ5hAAjoaAtojIJz5wC4tactPn17HgBz3hzLnC1j6my5dTG29764qAiDwcDjTz6FoihseCuPlUlH6mrUom+5az2uz6qkI+qHhQULFjjcbAPAy6tWYLFYNI5rooEZmbu7OwD3j4lk3guLURSF51ZlqMmLCLsPFFBSWqlTNp2S0kp2HyhQW3VV0hGeXZXR4NcUxd3dXSwWC0GdO/NF1pd6v4Z7hg7k1MmTLNk2iZA7gnhj4R52pmo/1455NJRpfxtBblYBcx/ZQpeuwaS9u0P1v7RiMW9t2wLAk1EhZB49T+7pixi9PHhmUm+mR93e5C8qF0oreH1bLqvfPEb5NX5CMuzevRvqPcYNMWzYcAB2JNnG/kdn38v9U0Lx9mmNt09rxjwaypSEexERdiRlATBoiPbjQWHBz+dZn5ZH7umL+Pn5UV5pYfH6bExDNzH68R2s3Zrj8F5S94Ss3ZrD6GnbCRySxJIN2VRUWvDz8yP39MUmJQ22itQ1q+9KflDLsbyTAojRaFRtufmnxNvbKIBMnBUm//j/5x3Krm/my8TYoQKIl7e37Ps8S10b25v+hbi5uYmHh4esXLlSTCaTrFu3TqqqqiQ7O1siIyOlVatW6vVkvvOgwxpa5jsPqv5WrVrJ+PHjJTs7W6qqqmTdunViMpkkJSVFu4joBKeJ5+SdlPuGjxBARo0O19yQxE3JYjAYBJB+Q2+VxVsnyXu5z8q7uc/K4q2TpN/QWwUQRVFkxctr1KSP5H4tUx+fLoCMHTtWRERd+KtPWVmZujg5c0ofh8RnTukj1C0elpWV6eVO63SGJnF9adu2rWRkZmsS/67kB3ljU4oYjbaWd1a8vL0dkt77zwzx8vIWRVEkIyNDexF1OjuZmZkOdepLZmamS31TUERE9F29t7eRQYOHMGfuPDrffLPGZ6f04kVCetwGQOvWrTEY3PjjnzoxaEgYEx56BD+/dpr4Z+Nm8Om+PURERLBz506NT/8bXkQIDAx0uQ+mU6dOFBYWqjq9viloEne1qukK/WqnK959eysrli7EaDSSn5+PyWTS+Bu78Ob6nWEAMBqNULfSer35dN8eXlqxBEVRSExMdEj6t8IA0Lev7SP9+++9o/c3i/feSWPu7Fhqa2tZsGABDz30kD6EggLHxQmlbj+bK1z5ndXlCgNAbGwsAIteXMDGNzY0u+V/+uknFsx7luVLXsBqtfLCCy8wf/58fRgHDx4ktO6XYY8ePfTuJtOzZ08AQkNDsa8oNYq9l5szZ45Dz9nc4uXlJVu3bq3fmaokJSWJp6enADJq1Cgxm82qz65v6vGlS5ckPDxcAPHw8JCNGzeqPldoxoBdu3ZJWFhYg0PVtZQTJ07Ur15ERGprayU2NlYURRFFUSQ2NlZqa2s1MXZ9U4+lrt64uDhRFEUAeeaZZ8RisWhi6tOkwc9+Iv147qo4uzBpYsucOnXKQe/q+Pjx46rNTnJysvokjRw5UvMk1cfx6pxwvRLv2bOnAOLv7y/79+/Xu2Xz5s3i7e0tgAQHB6t2fX3du3cXQNq0aSNJSUmq3c7BgwfF399fAOnevbveLdLSidvt586d09grKipk6tSpqn/y5MlSXl7uoGtqvIjIuXPnHHT1cW7Vcb0T19NYC7rSuXpC7LjSibONAc7Qz+yqqqo4efIEebm5fHP2DMXFRfzr22+5dMnM5cuXKS8vB2Dt2rVMmzYNT09PTT36U9rtx48fp3v37hpffb9eB3D69GmCg4Od+hvSOb8dOux37rm58+SuuweIh4eHamusdOvWTfLy8jT16HFlt/NL/a7s0tijfv78eVm2bJlDMorBTdre2kNM4Y9Ij6cXyR3Lt8nQlM9l+PZ8Cf+kUO5P/05Cl20TY2BXAcTHx0eio6NVfUJCgtTU1KjncXWBNTU1kpCQ4FJnR69vis7hbFarVfbu3Svjxo3TtGwrvz+IKWKihC7ZIqM+/kbG7C9ptITvK5L/CRuruWn2Eh8fr55Tf+F24uLiGtTZ0eubotO84+np6cyaNYucHNtnHsXNnYC7h2MaHUX7fkNQ3GwLh9eC1Nby0ahbqK2qJCN6PCIwMOl9zf5yV++ifR+7K50dvd6Zzs/PT92fR/2tIPPmzWPYsGHk5ORwQ/ubCJ42h/veO0b/hcl0uOPeX5Q0gOLmhpunbeeECAi2i3P2I0PPzwn9rLN/lW0IZzr9+QwAs2fPZtGiRYhiIHjaXO5NO0yXR2bQ+sb2muBfyp9G/AWw3flBSX8HcNhG7YxJkyaBTme3NURTdMr27dtl3Lhx4OZO6JLNdAi9RxNwPbBaashf/TcKP0zF09OT2NhYFi5cqK656x9VO1evXiUhIYE333wT6i5++fLl6vBoR6+367ZssS1jT5482UGnBAYGSmFhIT1nLKHzuKmq43pz9YqZ3eFdNe+axWJh7ty5rFixAuq2Vy9evFi9IY3RHL0CiLHzbQxN+gylCe/PL0VE2DnEttfNvgcuPj6eVatWaeLi4+PVRBqjOXoFkJ4xS+n8Z8f/bVxvPhxs267dUO/rrNd2RXP0BgD/PgP19hbBWe/blF7bTnP1DoP9r13szJgxw8EXExNTf57RIM3R/6aJV1dXy4wZM6Rdu3bSrl07iYmJkerqas0FNkRz9E36dfafSNNfiP8w/g0DzIHz0BP5uQAAAABJRU5ErkJggg==;" vertex="1" parent="1">
          <mxGeometry x="1009" y="530" width="62" height="66" as="geometry" />
        </mxCell>
      </root>
    </mxGraphModel>
  </diagram>
</mxfile>
